<svg width="74" height="100" viewBox="0 0 74 100" fill="none" xmlns="http://www.w3.org/2000/svg">
<path d="M71.1702 83.6299V0" stroke="black" stroke-width="2.73" stroke-linejoin="bevel"/>
<path d="M72.248 78.7648C70.4624 75.4912 66.6928 73.7056 62.1296 73.7056C58.7568 73.7056 55.0864 74.6976 51.5152 76.5824C44.968 80.0544 41 85.9072 41 90.9664C41 92.3552 41.2976 93.744 41.992 95.0336C43.7776 98.3072 47.5472 99.9936 52.1104 99.9936C55.4832 99.9936 59.1536 99.1008 62.7248 97.216C69.272 93.744 73.24 87.8912 73.24 82.832C73.24 81.4432 72.9424 80.0544 72.248 78.7648ZM67.9824 85.5104C66.296 87.1968 62.9232 89.28 59.352 91.264C55.7808 93.248 52.2096 94.736 49.8288 95.232C49.3328 95.3312 48.8368 95.4304 48.3408 95.4304C46.7536 95.4304 45.5632 94.8352 44.8688 93.5456C44.5712 93.0496 44.3728 92.4544 44.3728 91.8592C44.3728 90.768 45.0672 89.4784 46.1584 88.3872C47.8448 86.7008 51.1184 84.6176 54.6896 82.6336C58.2608 80.6496 61.832 79.1616 64.2128 78.6656C64.7088 78.5664 65.2048 78.4672 65.7008 78.4672C67.288 78.4672 68.5776 79.0624 69.272 80.352C69.5696 80.848 69.6688 81.4432 69.6688 82.0384C69.6688 83.1296 69.0736 84.32 67.9824 85.5104Z" fill="black"/>
<path d="M0 42.4943V53.2079C0 54.5967 0 54.5967 1.3888 54.5967H30.8512C32.24 54.5967 32.24 54.5967 32.24 53.2079V42.4943C32.24 41.1055 32.24 41.1055 30.8512 41.1055H1.3888C0 41.1055 0 41.1055 0 42.4943Z" fill="black"/>
</svg>
