<svg width="117" height="115" viewBox="0 0 117 115" fill="none" xmlns="http://www.w3.org/2000/svg">
<path d="M49.832 9.54224C49.0781 9.31408 48.4333 9.69104 48.1456 10.316C47.8579 10.941 45.4474 15.7522 41.2909 19.2738C39.9813 20.3848 38.4736 21.1189 36.936 21.5554C37.9578 20.236 38.5133 18.5496 38.3941 16.7541C38.1264 12.8555 34.7437 9.91919 30.8451 10.187C26.9466 10.4549 24.0101 13.8376 24.2781 17.7461C24.4864 20.7221 26.5101 23.1326 29.1885 23.9957C30.7557 24.6107 32.6704 24.9083 34.6941 24.7694C37.5114 24.571 40.5171 23.5394 43.0666 21.3768C44.2371 20.3848 45.3381 19.125 46.3203 17.8056L42.4218 33.757C41.896 35.116 38.9002 41.5144 35.0611 44.7682C33.7517 45.8792 32.2437 46.6133 30.7061 47.0497C31.728 45.7304 32.2835 44.044 32.1645 42.2485C31.8965 38.3499 28.5139 35.4136 24.6154 35.6814C20.7168 35.9493 17.7804 39.332 18.0483 43.2405C18.2566 46.2165 20.2803 48.6271 22.9587 49.4901C24.5261 50.1051 26.4405 50.4027 28.4643 50.2639C31.2816 50.0655 34.2874 49.0337 36.8368 46.8712C38.0074 45.8792 39.0986 44.6293 40.0805 43.3099L36.4101 58.2991C36.0035 59.2315 32.9085 66.0962 29.0298 69.3896C27.7203 70.5006 26.2125 71.2347 24.6749 71.6712C25.6965 70.3518 26.2522 68.6654 26.1331 66.8699C25.8653 62.9713 22.4826 60.0351 18.584 60.3029C14.6854 60.5707 11.7491 63.9535 12.017 67.8619C12.2252 70.8379 14.249 73.2485 16.9274 74.1115C18.4947 74.7266 20.4092 75.0241 22.433 74.8853C25.2501 74.6869 28.256 73.6552 30.8053 71.4926C31.9859 70.4907 33.0771 69.2408 34.0592 67.9214L25.0419 104.744L27.7104 105.399L50.7347 11.1691C50.9133 10.435 50.576 9.7704 49.832 9.54224Z" fill="black"/>
<path d="M89.647 98.5V14.8799" stroke="black" stroke-width="2.73" stroke-linejoin="bevel"/>
<path d="M90.0251 93.6446C88.2395 90.371 84.4699 88.5854 79.9067 88.5854C76.5339 88.5854 72.8635 89.5774 69.2923 91.4622C62.7451 94.9342 58.7771 100.787 58.7771 105.846C58.7771 107.235 59.0747 108.624 59.7691 109.913C61.5547 113.187 65.3243 114.873 69.8875 114.873C73.2603 114.873 76.9307 113.981 80.5019 112.096C87.0491 108.624 91.0171 102.771 91.0171 97.7118C91.0171 96.323 90.7195 94.9342 90.0251 93.6446Z" fill="black"/>
<path d="M116.063 60.6112C116.063 59.024 115.666 56.4448 115.269 54.8576C115.666 51.8816 116.063 48.7072 116.063 45.9296V44.9376C115.964 39.7792 114.773 34.4224 111.301 29.9584C106.54 23.808 100.29 20.7328 96.5205 15.2768C92.7509 9.8208 91.1637 1.2896 91.1637 1.2896C91.0645 0.5952 90.8661 0 89.6757 0C88.4853 0 88.2869 0.5952 88.2869 1.2896V17.0624V22.816V22.9152V29.0656V30.752V36.5056V47.4176V52.2784C88.2869 52.4768 88.9813 52.9728 89.6757 53.1712C92.2549 54.1632 100.092 59.1232 106.044 67.952C109.615 73.408 110.21 76.9792 110.21 80.5504V81.6416C110.111 84.1216 109.516 89.1808 108.028 93.1488C107.73 94.0416 107.234 95.3312 108.226 95.8272C109.218 96.3232 109.813 95.3312 110.309 94.6368C112.095 91.76 114.674 86.4032 114.674 80.7488V80.4512C114.674 78.6656 114.575 75.6896 114.277 73.904C115.17 70.3328 116.063 65.968 116.063 61.4048V60.6112ZM106.341 33.9264C110.805 39.3824 111.698 43.4496 111.698 47.3184C111.4 46.9216 111.202 46.624 110.904 46.2272C106.143 40.0768 101.877 37.5968 96.3221 32.5376C93.4453 29.8592 92.4533 26.3872 92.1557 24.5024C96.6197 24.8992 102.572 29.3632 106.341 33.9264ZM109.02 61.4048C106.341 57.9328 103.464 54.6592 98.6037 49.7984C94.8341 46.0288 92.9493 42.7552 92.2549 40.2752C96.7189 40.7712 102.572 45.0368 106.341 49.6C110.805 54.9568 111.698 59.1232 111.698 62.992C111.698 63.7856 111.698 64.48 111.599 65.2736C111.004 64.0832 109.813 62.3968 109.02 61.4048Z" fill="black"/>
</svg>
