<svg width="33" height="100" viewBox="0 0 33 100" fill="none" xmlns="http://www.w3.org/2000/svg">
<path d="M30.8599 83.626V0" stroke="black" stroke-width="2.73" stroke-linejoin="bevel"/>
<path d="M31.248 78.7648C29.4624 75.4912 25.6928 73.7056 21.1296 73.7056C17.7568 73.7056 14.0864 74.6976 10.5152 76.5824C3.968 80.0544 0 85.9072 0 90.9664C0 92.3552 0.2976 93.744 0.992 95.0336C2.7776 98.3072 6.5472 99.9936 11.1104 99.9936C14.4832 99.9936 18.1536 99.1008 21.7248 97.216C28.272 93.744 32.24 87.8912 32.24 82.832C32.24 81.4432 31.9424 80.0544 31.248 78.7648ZM26.9824 85.5104C25.296 87.1968 21.9232 89.28 18.352 91.264C14.7808 93.248 11.2096 94.736 8.8288 95.232C8.3328 95.3312 7.8368 95.4304 7.3408 95.4304C5.7536 95.4304 4.5632 94.8352 3.8688 93.5456C3.5712 93.0496 3.3728 92.4544 3.3728 91.8592C3.3728 90.768 4.0672 89.4784 5.1584 88.3872C6.8448 86.7008 10.1184 84.6176 13.6896 82.6336C17.2608 80.6496 20.832 79.1616 23.2128 78.6656C23.7088 78.5664 24.2048 78.4672 24.7008 78.4672C26.288 78.4672 27.5776 79.0624 28.272 80.352C28.5696 80.848 28.6688 81.4432 28.6688 82.0384C28.6688 83.1296 28.0736 84.32 26.9824 85.5104Z" fill="black"/>
</svg>
