<svg width="449" height="161" viewBox="0 0 449 161" fill="none" xmlns="http://www.w3.org/2000/svg">
<path d="M30.8701 144.44V60.8201" stroke="black" stroke-width="2.73" stroke-linejoin="bevel"/>
<path d="M131.55 144.44V60.8201" stroke="black" stroke-width="2.73" stroke-linejoin="bevel"/>
<path d="M232.22 144.44V60.8201" stroke="black" stroke-width="2.73" stroke-linejoin="bevel"/>
<path d="M332.9 144.44V60.8201" stroke="black" stroke-width="2.73" stroke-linejoin="bevel"/>
<path d="M433.58 144.44V60.8201" stroke="black" stroke-width="2.73" stroke-linejoin="bevel"/>
<path d="M31.248 139.585C29.4624 136.311 25.6928 134.526 21.1296 134.526C17.7568 134.526 14.0864 135.518 10.5152 137.402C3.968 140.874 0 146.727 0 151.786C0 153.175 0.2976 154.564 0.992 155.854C2.7776 159.127 6.5472 160.814 11.1104 160.814C14.4832 160.814 18.1536 159.921 21.7248 158.036C28.272 154.564 32.24 148.711 32.24 143.652C32.24 142.263 31.9424 140.874 31.248 139.585Z" fill="black"/>
<path d="M131.928 139.585C130.143 136.311 126.373 134.526 121.81 134.526C118.437 134.526 114.767 135.518 111.195 137.402C104.648 140.874 100.68 146.727 100.68 151.786C100.68 153.175 100.978 154.564 101.672 155.854C103.458 159.127 107.227 160.814 111.791 160.814C115.163 160.814 118.834 159.921 122.405 158.036C128.952 154.564 132.92 148.711 132.92 143.652C132.92 142.263 132.623 140.874 131.928 139.585Z" fill="black"/>
<path d="M232.608 139.585C230.823 136.311 227.053 134.526 222.49 134.526C219.117 134.526 215.447 135.518 211.875 137.402C205.328 140.874 201.36 146.727 201.36 151.786C201.36 153.175 201.658 154.564 202.352 155.854C204.138 159.127 207.907 160.814 212.471 160.814C215.843 160.814 219.514 159.921 223.085 158.036C229.632 154.564 233.6 148.711 233.6 143.652C233.6 142.263 233.303 140.874 232.608 139.585Z" fill="black"/>
<path d="M333.278 139.585C331.493 136.311 327.723 134.526 323.16 134.526C319.787 134.526 316.117 135.518 312.545 137.402C305.998 140.874 302.03 146.727 302.03 151.786C302.03 153.175 302.328 154.564 303.022 155.854C304.808 159.127 308.577 160.814 313.141 160.814C316.513 160.814 320.184 159.921 323.755 158.036C330.302 154.564 334.27 148.711 334.27 143.652C334.27 142.263 333.973 140.874 333.278 139.585Z" fill="black"/>
<path d="M433.958 139.585C432.172 136.311 428.403 134.526 423.84 134.526C420.467 134.526 416.796 135.518 413.225 137.402C406.678 140.874 402.71 146.727 402.71 151.786C402.71 153.175 403.008 154.564 403.702 155.854C405.488 159.127 409.257 160.814 413.82 160.814C417.193 160.814 420.864 159.921 424.435 158.036C430.982 154.564 434.95 148.711 434.95 143.652C434.95 142.263 434.652 140.874 433.958 139.585Z" fill="black"/>
<path d="M222.69 14.4401C221.3 15.3001 220.89 15.8401 220.89 16.7401C220.89 17.5901 221.61 18.2201 222.51 18.2201C223.68 18.2201 224.36 17.3701 224.49 15.7001C225.89 14.5801 227.37 14.0801 229.17 14.0801C232.5 14.0801 234.35 16.15 234.35 19.89C234.35 25.74 230.57 30.51 225.93 30.51C223.28 30.51 221.12 29.25 221.12 27.76C221.12 27.49 221.16 27.4 221.39 27.27C222.56 26.73 222.56 26.73 222.87 26.5C223.59 25.96 224 25.1501 224 24.2101C224 22.7701 222.87 21.6901 221.3 21.6901C219.32 21.6901 217.83 23.35 217.83 25.51C217.83 29.47 221.25 32.3501 226.07 32.3501C233.36 32.3501 239.25 26.5501 239.25 19.3501C239.25 14.8001 235.79 11.6101 230.88 11.6101C228.95 11.6101 227.37 12.0101 225.21 13.0901L227.73 4.59009C230.12 5.08009 232.01 5.31006 233.63 5.31006C236.6 5.31006 239.25 4.36004 240.74 2.79004C241.5 1.89004 241.95 1.12004 241.95 0.540039C241.95 0.270039 241.82 0 241.64 0C241.5 0 241.41 0.0400537 241.14 0.180054C239.66 0.900054 237.77 1.30005 236.01 1.30005C233.31 1.30005 230.12 0.85 226.79 0L222.69 14.4401Z" fill="black"/>
<path d="M12.4001 34.78V16.1801H205.42" stroke="black" stroke-width="2.48" stroke-linecap="square" stroke-linejoin="bevel"/>
<path d="M254.33 16.1801H447.34V34.78" stroke="black" stroke-width="2.48" stroke-linecap="square" stroke-linejoin="bevel"/>
</svg>
