<svg width="250" height="161" viewBox="0 0 250 161" fill="none" xmlns="http://www.w3.org/2000/svg">
<path d="M30.8679 144.45V60.8199" stroke="black" stroke-width="2.73" stroke-linejoin="bevel"/>
<path d="M132.932 144.45V60.8199" stroke="black" stroke-width="2.73" stroke-linejoin="bevel"/>
<path d="M234.995 144.45V60.8199" stroke="black" stroke-width="2.73" stroke-linejoin="bevel"/>
<path d="M31.248 139.585C29.4624 136.311 25.6928 134.526 21.1296 134.526C17.7568 134.526 14.0864 135.518 10.5152 137.402C3.968 140.874 0 146.727 0 151.786C0 153.175 0.2976 154.564 0.992 155.854C2.7776 159.127 6.5472 160.814 11.1104 160.814C14.4832 160.814 18.1536 159.921 21.7248 158.036C28.272 154.564 32.24 148.711 32.24 143.652C32.24 142.263 31.9424 140.874 31.248 139.585Z" fill="black"/>
<path d="M133.311 139.585C131.525 136.311 127.756 134.526 123.193 134.526C119.82 134.526 116.149 135.518 112.578 137.402C106.031 140.874 102.063 146.727 102.063 151.786C102.063 153.175 102.361 154.564 103.055 155.854C104.841 159.127 108.61 160.814 113.173 160.814C116.546 160.814 120.217 159.921 123.788 158.036C130.335 154.564 134.303 148.711 134.303 143.652C134.303 142.263 134.005 140.874 133.311 139.585Z" fill="black"/>
<path d="M235.375 139.585C233.589 136.311 229.82 134.526 225.257 134.526C221.884 134.526 218.213 135.518 214.642 137.402C208.095 140.874 204.127 146.727 204.127 151.786C204.127 153.175 204.425 154.564 205.119 155.854C206.905 159.127 210.674 160.814 215.237 160.814C218.61 160.814 222.281 159.921 225.852 158.036C232.399 154.564 236.367 148.711 236.367 143.652C236.367 142.263 236.069 140.874 235.375 139.585Z" fill="black"/>
<path d="M134.536 15.2999C136.651 14.6299 137.506 14.2699 138.586 13.5499C140.701 12.1499 142.006 9.67991 142.006 7.15991C142.006 2.87991 138.586 0 133.546 0C128.641 0 124.501 3.06 124.501 6.75C124.501 8.6 125.626 9.85999 127.336 9.85999C128.821 9.85999 129.901 8.77992 129.901 7.28992C129.901 6.52992 129.676 5.9899 128.956 5.2699C128.506 4.8599 128.326 4.54998 128.326 4.22998C128.326 3.14998 130.576 2.02991 132.691 2.02991C135.706 2.02991 137.506 3.68998 137.506 6.47998C137.506 10.49 134.671 14.2699 131.656 14.2699C131.521 14.2699 131.116 14.2199 130.621 14.1799C129.316 14.0899 129.316 14.09 129.046 14.09C128.056 14.09 127.516 14.54 127.516 15.35C127.516 16.07 128.011 16.5199 128.821 16.5199C129.046 16.5199 129.361 16.4699 129.721 16.4299C130.351 16.2899 131.026 16.25 131.431 16.25C133.546 16.25 134.986 18.1399 134.986 20.9299C134.986 23.0899 134.491 25.16 133.501 26.87C132.151 29.3 130.081 30.47 127.156 30.47C124.636 30.47 122.476 29.2099 122.476 27.7699C122.476 27.2699 122.656 27.0899 123.376 26.7799C124.681 26.1899 125.221 25.3799 125.221 24.1699C125.221 22.5899 123.961 21.38 122.341 21.38C120.406 21.38 119.146 22.91 119.146 25.25C119.146 29.61 122.476 32.36 127.876 32.36C134.671 32.36 139.846 27.8099 139.846 21.7799C139.846 20.1599 139.351 18.7699 138.406 17.6399C137.416 16.4699 136.516 15.9299 134.536 15.2999Z" fill="black"/>
<path d="M12.3999 34.7799V16.1799H106.75" stroke="black" stroke-width="2.48" stroke-linecap="square" stroke-linejoin="bevel"/>
<path d="M154.409 16.1799H248.759V34.7799" stroke="black" stroke-width="2.48" stroke-linecap="square" stroke-linejoin="bevel"/>
</svg>
