<svg width="58" height="115" viewBox="0 0 58 115" fill="none" xmlns="http://www.w3.org/2000/svg">
<path d="M30.8701 98.51V14.88" stroke="black" stroke-width="2.73" stroke-linejoin="bevel"/>
<path d="M31.248 93.6448C29.4624 90.3712 25.6928 88.5856 21.1296 88.5856C17.7568 88.5856 14.0864 89.5776 10.5152 91.4624C3.968 94.9344 0 100.787 0 105.846C0 107.235 0.2976 108.624 0.992 109.914C2.7776 113.187 6.5472 114.874 11.1104 114.874C14.4832 114.874 18.1536 113.981 21.7248 112.096C28.272 108.624 32.24 102.771 32.24 97.712C32.24 96.3232 31.9424 94.9344 31.248 93.6448Z" fill="black"/>
<path d="M57.2863 60.6112C57.2863 59.024 56.8895 56.4448 56.4927 54.8576C56.8895 51.8816 57.2863 48.7072 57.2863 45.9296V44.9376C57.1871 39.7792 55.9967 34.4224 52.5247 29.9584C47.7631 23.808 41.5135 20.7328 37.7439 15.2768C33.9743 9.8208 32.3871 1.2896 32.3871 1.2896C32.2879 0.5952 32.0895 0 30.8991 0C29.7087 0 29.5103 0.5952 29.5103 1.2896V17.0624V22.816V22.9152V29.0656V30.752V36.5056V47.4176V52.2784C29.5103 52.4768 30.2047 52.9728 30.8991 53.1712C33.4783 54.1632 41.3151 59.1232 47.2671 67.952C50.8383 73.408 51.4335 76.9792 51.4335 80.5504V81.6416C51.3343 84.1216 50.7391 89.1808 49.2511 93.1488C48.9535 94.0416 48.4575 95.3312 49.4495 95.8272C50.4415 96.3232 51.0367 95.3312 51.5327 94.6368C53.3183 91.76 55.8975 86.4032 55.8975 80.7488V80.4512C55.8975 78.6656 55.7983 75.6896 55.5007 73.904C56.3935 70.3328 57.2863 65.968 57.2863 61.4048V60.6112ZM47.5647 33.9264C52.0287 39.3824 52.9215 43.4496 52.9215 47.3184C52.6239 46.9216 52.4255 46.624 52.1279 46.2272C47.3663 40.0768 43.1007 37.5968 37.5455 32.5376C34.6687 29.8592 33.6767 26.3872 33.3791 24.5024C37.8431 24.8992 43.7951 29.3632 47.5647 33.9264ZM50.2431 61.4048C47.5647 57.9328 44.6879 54.6592 39.8271 49.7984C36.0575 46.0288 34.1727 42.7552 33.4783 40.2752C37.9423 40.7712 43.7951 45.0368 47.5647 49.6C52.0287 54.9568 52.9215 59.1232 52.9215 62.992C52.9215 63.7856 52.9215 64.48 52.8223 65.2736C52.2271 64.0832 51.0367 62.3968 50.2431 61.4048Z" fill="black"/>
</svg>
