<svg width="324" height="161" viewBox="0 0 324 161" fill="none" xmlns="http://www.w3.org/2000/svg">
<path d="M30.8679 144.57V54.74" stroke="black" stroke-width="2.73" stroke-linejoin="bevel"/>
<path d="M79.377 144.57V54.74" stroke="black" stroke-width="2.73" stroke-linejoin="bevel"/>
<path d="M127.886 144.57V54.74" stroke="black" stroke-width="2.73" stroke-linejoin="bevel"/>
<path d="M176.394 144.57V54.74" stroke="black" stroke-width="2.73" stroke-linejoin="bevel"/>
<path d="M224.903 144.57V54.74" stroke="black" stroke-width="2.73" stroke-linejoin="bevel"/>
<path d="M273.412 144.57V54.74" stroke="black" stroke-width="2.73" stroke-linejoin="bevel"/>
<path d="M321.921 144.57V54.74" stroke="black" stroke-width="2.73" stroke-linejoin="bevel"/>
<path d="M31.248 139.705C29.4624 136.431 25.6928 134.646 21.1296 134.646C17.7568 134.646 14.0864 135.638 10.5152 137.522C3.968 140.994 0 146.847 0 151.906C0 153.295 0.2976 154.684 0.992 155.974C2.7776 159.247 6.5472 160.934 11.1104 160.934C14.4832 160.934 18.1536 160.041 21.7248 158.156C28.272 154.684 32.24 148.831 32.24 143.772C32.24 142.383 31.9424 140.994 31.248 139.705Z" fill="black"/>
<path d="M79.7568 139.705C77.9712 136.431 74.2016 134.646 69.6384 134.646C66.2656 134.646 62.5952 135.638 59.024 137.522C52.4768 140.994 48.5088 146.847 48.5088 151.906C48.5088 153.295 48.8064 154.684 49.5008 155.974C51.2864 159.247 55.056 160.934 59.6192 160.934C62.992 160.934 66.6624 160.041 70.2336 158.156C76.7808 154.684 80.7488 148.831 80.7488 143.772C80.7488 142.383 80.4512 140.994 79.7568 139.705Z" fill="black"/>
<path d="M128.265 139.705C126.479 136.431 122.709 134.646 118.146 134.646C114.773 134.646 111.103 135.638 107.532 137.522C100.985 140.994 97.0166 146.847 97.0166 151.906C97.0166 153.295 97.3142 154.684 98.0086 155.974C99.7942 159.247 103.564 160.934 108.127 160.934C111.5 160.934 115.17 160.041 118.741 158.156C125.289 154.684 129.257 148.831 129.257 143.772C129.257 142.383 128.959 140.994 128.265 139.705Z" fill="black"/>
<path d="M176.774 139.705C174.988 136.431 171.219 134.646 166.655 134.646C163.283 134.646 159.612 135.638 156.041 137.522C149.494 140.994 145.526 146.847 145.526 151.906C145.526 153.295 145.823 154.684 146.518 155.974C148.303 159.247 152.073 160.934 156.636 160.934C160.009 160.934 163.679 160.041 167.251 158.156C173.798 154.684 177.766 148.831 177.766 143.772C177.766 142.383 177.468 140.994 176.774 139.705Z" fill="black"/>
<path d="M225.283 139.705C223.498 136.431 219.728 134.646 215.165 134.646C211.792 134.646 208.122 135.638 204.55 137.522C198.003 140.994 194.035 146.847 194.035 151.906C194.035 153.295 194.333 154.684 195.027 155.974C196.813 159.247 200.582 160.934 205.146 160.934C208.518 160.934 212.189 160.041 215.76 158.156C222.307 154.684 226.275 148.831 226.275 143.772C226.275 142.383 225.978 140.994 225.283 139.705Z" fill="black"/>
<path d="M273.792 139.705C272.006 136.431 268.237 134.646 263.674 134.646C260.301 134.646 256.63 135.638 253.059 137.522C246.512 140.994 242.544 146.847 242.544 151.906C242.544 153.295 242.842 154.684 243.536 155.974C245.322 159.247 249.091 160.934 253.654 160.934C257.027 160.934 260.698 160.041 264.269 158.156C270.816 154.684 274.784 148.831 274.784 143.772C274.784 142.383 274.486 140.994 273.792 139.705Z" fill="black"/>
<path d="M322.3 139.705C320.514 136.431 316.745 134.646 312.181 134.646C308.809 134.646 305.138 135.638 301.567 137.522C295.02 140.994 291.052 146.847 291.052 151.906C291.052 153.295 291.349 154.684 292.044 155.974C293.829 159.247 297.599 160.934 302.162 160.934C305.535 160.934 309.205 160.041 312.777 158.156C319.324 154.684 323.292 148.831 323.292 143.772C323.292 142.383 322.994 140.994 322.3 139.705Z" fill="black"/>
<path fill-rule="evenodd" clip-rule="evenodd" d="M29.5039 48.5398H323.285V60.9399H29.5039V48.5398Z" fill="black"/>
<path fill-rule="evenodd" clip-rule="evenodd" d="M29.5039 67.1399H323.285V79.5398H29.5039V67.1399Z" fill="black"/>
<path fill-rule="evenodd" clip-rule="evenodd" d="M29.5039 85.74H323.285V98.1399H29.5039V85.74Z" fill="black"/>
<path d="M186.119 0C183.734 0.27 180.809 0.449951 178.289 0.449951C177.029 0.449951 175.589 0.399814 173.969 0.309814C172.484 0.219814 170.999 0.129795 169.469 0.0397949L168.344 0L163.979 9.48999L165.644 10.03L166.724 8.22998C168.839 4.71998 169.829 4.23002 174.419 4.27002H182.024L177.119 11.2898C171.359 19.3898 171.359 19.39 169.154 22.99C167.174 26.19 166.364 28.1698 166.364 29.7898C166.364 31.3598 167.354 32.3499 168.929 32.3499C170.594 32.3499 171.449 31.5399 172.034 29.4299C174.284 20.9699 175.634 18.0399 181.889 7.91992L186.119 1.34985V0Z" fill="black"/>
</svg>
