<svg width="38" height="100" viewBox="0 0 38 100" fill="none" xmlns="http://www.w3.org/2000/svg">
<path d="M18.5504 37C4.8608 37 0 43.944 0 50.392C0 56.84 4.8608 63.784 18.5504 63.784C32.24 63.784 37.0016 56.84 37.0016 50.392C37.0016 43.944 32.24 37 18.5504 37ZM10.3168 46.0272C10.2176 45.6304 10.2176 45.2336 10.2176 44.8368C10.2176 44.0432 10.416 43.2496 10.8128 42.5552C11.5072 41.5632 12.6976 40.8688 14.1856 40.5712C15.4752 40.2736 16.1696 40.0752 18.7488 40.0752H18.848C22.816 40.0752 24.1056 43.7456 25.1968 47.5152L25.4944 48.5072C26.288 51.0864 26.6848 53.2688 26.6848 54.9552C26.6848 56.1456 26.4864 57.2368 26.0896 58.0304C25.4944 59.1216 24.5024 59.816 22.816 60.2128C21.9232 60.4112 20.4352 60.5104 20.4352 60.5104C19.9392 60.5104 19.5424 60.6096 19.1456 60.6096C15.9712 60.6096 13.9872 59.4192 12.5984 55.1536C11.408 51.4832 11.2096 50.392 10.3168 46.0272Z" fill="black"/>
</svg>
