<svg width="388" height="160" viewBox="0 0 388 160" fill="none" xmlns="http://www.w3.org/2000/svg">
<path d="M30.8699 143.21V71.98" stroke="black" stroke-width="2.73" stroke-linejoin="bevel"/>
<path d="M90.02 143.21V71.98" stroke="black" stroke-width="2.73" stroke-linejoin="bevel"/>
<path d="M149.16 143.21V71.98" stroke="black" stroke-width="2.73" stroke-linejoin="bevel"/>
<path d="M208.3 143.21V71.98" stroke="black" stroke-width="2.73" stroke-linejoin="bevel"/>
<path d="M267.45 143.21V71.98" stroke="black" stroke-width="2.73" stroke-linejoin="bevel"/>
<path d="M326.59 143.21V71.98" stroke="black" stroke-width="2.73" stroke-linejoin="bevel"/>
<path d="M385.73 143.21V71.98" stroke="black" stroke-width="2.73" stroke-linejoin="bevel"/>
<path d="M31.248 138.345C29.4624 135.071 25.6928 133.286 21.1296 133.286C17.7568 133.286 14.0864 134.278 10.5152 136.162C3.968 139.634 0 145.487 0 150.546C0 151.935 0.2976 153.324 0.992 154.614C2.7776 157.887 6.5472 159.574 11.1104 159.574C14.4832 159.574 18.1536 158.681 21.7248 156.796C28.272 153.324 32.24 147.471 32.24 142.412C32.24 141.023 31.9424 139.634 31.248 138.345Z" fill="black"/>
<path d="M90.3979 138.345C88.6123 135.071 84.8427 133.286 80.2795 133.286C76.9067 133.286 73.2363 134.278 69.6651 136.162C63.1179 139.634 59.1499 145.487 59.1499 150.546C59.1499 151.935 59.4475 153.324 60.1419 154.614C61.9275 157.887 65.6971 159.574 70.2603 159.574C73.6331 159.574 77.3035 158.681 80.8747 156.796C87.4219 153.324 91.3899 147.471 91.3899 142.412C91.3899 141.023 91.0923 139.634 90.3979 138.345Z" fill="black"/>
<path d="M149.538 138.345C147.752 135.071 143.983 133.286 139.42 133.286C136.047 133.286 132.376 134.278 128.805 136.162C122.258 139.634 118.29 145.487 118.29 150.546C118.29 151.935 118.588 153.324 119.282 154.614C121.068 157.887 124.837 159.574 129.4 159.574C132.773 159.574 136.444 158.681 140.015 156.796C146.562 153.324 150.53 147.471 150.53 142.412C150.53 141.023 150.232 139.634 149.538 138.345Z" fill="black"/>
<path d="M208.678 138.345C206.892 135.071 203.123 133.286 198.56 133.286C195.187 133.286 191.516 134.278 187.945 136.162C181.398 139.634 177.43 145.487 177.43 150.546C177.43 151.935 177.728 153.324 178.422 154.614C180.208 157.887 183.977 159.574 188.54 159.574C191.913 159.574 195.584 158.681 199.155 156.796C205.702 153.324 209.67 147.471 209.67 142.412C209.67 141.023 209.372 139.634 208.678 138.345Z" fill="black"/>
<path d="M267.828 138.345C266.042 135.071 262.273 133.286 257.71 133.286C254.337 133.286 250.666 134.278 247.095 136.162C240.548 139.634 236.58 145.487 236.58 150.546C236.58 151.935 236.878 153.324 237.572 154.614C239.358 157.887 243.127 159.574 247.69 159.574C251.063 159.574 254.734 158.681 258.305 156.796C264.852 153.324 268.82 147.471 268.82 142.412C268.82 141.023 268.522 139.634 267.828 138.345Z" fill="black"/>
<path d="M326.968 138.345C325.182 135.071 321.413 133.286 316.85 133.286C313.477 133.286 309.806 134.278 306.235 136.162C299.688 139.634 295.72 145.487 295.72 150.546C295.72 151.935 296.018 153.324 296.712 154.614C298.498 157.887 302.267 159.574 306.83 159.574C310.203 159.574 313.874 158.681 317.445 156.796C323.992 153.324 327.96 147.471 327.96 142.412C327.96 141.023 327.662 139.634 326.968 138.345Z" fill="black"/>
<path d="M386.118 138.345C384.332 135.071 380.563 133.286 375.999 133.286C372.627 133.286 368.956 134.278 365.385 136.162C358.838 139.634 354.87 145.487 354.87 150.546C354.87 151.935 355.167 153.324 355.862 154.614C357.647 157.887 361.417 159.574 365.98 159.574C369.353 159.574 373.023 158.681 376.595 156.796C383.142 153.324 387.11 147.471 387.11 142.412C387.11 141.023 386.812 139.634 386.118 138.345Z" fill="black"/>
<path fill-rule="evenodd" clip-rule="evenodd" d="M29.5098 65.78H387.1V78.1799H29.5098V65.78Z" fill="black"/>
<path d="M218.03 0C215.64 0.27 212.72 0.449951 210.2 0.449951C208.94 0.449951 207.5 0.409824 205.88 0.319824C204.39 0.229824 202.91 0.140049 201.38 0.0500488L200.25 0L195.89 9.5L197.55 10.04L198.63 8.23999C200.75 4.72999 201.74 4.23003 206.33 4.28003H213.93L209.03 11.3C203.27 19.4 203.27 19.4 201.06 23C199.08 26.19 198.27 28.17 198.27 29.79C198.27 31.37 199.26 32.3599 200.84 32.3599C202.5 32.3599 203.36 31.5499 203.94 29.4299C206.19 20.9699 207.54 18.0499 213.8 7.91992L218.03 1.34985V0Z" fill="black"/>
</svg>
