<svg width="122" height="161" viewBox="0 0 122 161" fill="none" xmlns="http://www.w3.org/2000/svg">
<path d="M30.8699 144.57V54.74" stroke="black" stroke-width="2.73" stroke-linejoin="bevel"/>
<path d="M75.3999 144.57V54.74" stroke="black" stroke-width="2.73" stroke-linejoin="bevel"/>
<path d="M119.93 144.57V54.74" stroke="black" stroke-width="2.73" stroke-linejoin="bevel"/>
<path d="M31.248 139.705C29.4624 136.431 25.6928 134.646 21.1296 134.646C17.7568 134.646 14.0864 135.638 10.5152 137.522C3.968 140.994 0 146.847 0 151.906C0 153.295 0.2976 154.684 0.992 155.974C2.7776 159.247 6.5472 160.934 11.1104 160.934C14.4832 160.934 18.1536 160.041 21.7248 158.156C28.272 154.684 32.24 148.831 32.24 143.772C32.24 142.383 31.9424 140.994 31.248 139.705Z" fill="black"/>
<path d="M75.7778 139.705C73.9922 136.431 70.2226 134.646 65.6594 134.646C62.2866 134.646 58.6162 135.638 55.045 137.522C48.4978 140.994 44.5298 146.847 44.5298 151.906C44.5298 153.295 44.8274 154.684 45.5218 155.974C47.3074 159.247 51.077 160.934 55.6402 160.934C59.013 160.934 62.6834 160.041 66.2546 158.156C72.8018 154.684 76.7698 148.831 76.7698 143.772C76.7698 142.383 76.4722 140.994 75.7778 139.705Z" fill="black"/>
<path d="M120.318 139.705C118.532 136.431 114.763 134.646 110.199 134.646C106.827 134.646 103.156 135.638 99.585 137.522C93.0378 140.994 89.0698 146.847 89.0698 151.906C89.0698 153.295 89.3674 154.684 90.0618 155.974C91.8474 159.247 95.617 160.934 100.18 160.934C103.553 160.934 107.223 160.041 110.795 158.156C117.342 154.684 121.31 148.831 121.31 143.772C121.31 142.383 121.012 140.994 120.318 139.705Z" fill="black"/>
<path fill-rule="evenodd" clip-rule="evenodd" d="M29.5 48.5399H121.3V60.9399H29.5V48.5399Z" fill="black"/>
<path fill-rule="evenodd" clip-rule="evenodd" d="M29.5 67.1399H121.3V79.5399H29.5V67.1399Z" fill="black"/>
<path fill-rule="evenodd" clip-rule="evenodd" d="M29.5 85.74H121.3V98.1399H29.5V85.74Z" fill="black"/>
<path d="M77.99 15.2999C80.11 14.6199 80.9598 14.2599 82.0398 13.5399C84.1598 12.1499 85.46 9.6699 85.46 7.1499C85.46 2.8799 82.04 0 77 0C72.1 0 67.96 3.06 67.96 6.75C67.96 8.59 69.0798 9.84998 70.7898 9.84998C72.2798 9.84998 73.3599 8.76992 73.3599 7.28992C73.3599 6.51992 73.1299 5.97989 72.4099 5.25989C71.9599 4.85989 71.7798 4.53998 71.7798 4.22998C71.7798 3.14998 74.0299 2.0199 76.1499 2.0199C79.1599 2.0199 80.96 3.68998 80.96 6.47998C80.96 10.48 78.1299 14.2599 75.1099 14.2599C74.9799 14.2599 74.5698 14.2199 74.0798 14.1699C72.7698 14.0799 72.77 14.08 72.5 14.08C71.51 14.08 70.97 14.53 70.97 15.34C70.97 16.06 71.4698 16.5099 72.2798 16.5099C72.4998 16.5099 72.8199 16.4699 73.1799 16.4199C73.8099 16.2899 74.4799 16.24 74.8899 16.24C76.9999 16.24 78.4399 18.1299 78.4399 20.9199C78.4399 23.0799 77.95 25.15 76.96 26.86C75.61 29.29 73.5399 30.46 70.6099 30.46C68.0899 30.46 65.9299 29.1999 65.9299 27.7599C65.9299 27.2699 66.1098 27.0899 66.8298 26.7699C68.1398 26.1899 68.6799 25.3799 68.6799 24.1599C68.6799 22.5899 67.4198 21.37 65.7998 21.37C63.8598 21.37 62.5999 22.9 62.5999 25.24C62.5999 29.61 65.9298 32.35 71.3298 32.35C78.1298 32.35 83.2998 27.8099 83.2998 21.7799C83.2998 20.1599 82.8099 18.7599 81.8599 17.6399C80.8699 16.4699 79.97 15.9299 77.99 15.2999Z" fill="black"/>
</svg>
