<svg width="366" height="161" viewBox="0 0 366 161" fill="none" xmlns="http://www.w3.org/2000/svg">
<path d="M30.8699 144.445V60.8149" stroke="black" stroke-width="2.73" stroke-linejoin="bevel"/>
<path d="M190.88 144.445V60.8149" stroke="black" stroke-width="2.73" stroke-linejoin="bevel"/>
<path d="M350.9 144.445V60.8149" stroke="black" stroke-width="2.73" stroke-linejoin="bevel"/>
<path d="M31.248 139.58C29.4624 136.306 25.6928 134.521 21.1296 134.521C17.7568 134.521 14.0864 135.513 10.5152 137.397C3.968 140.869 0 146.722 0 151.781C0 153.17 0.2976 154.559 0.992 155.849C2.7776 159.122 6.5472 160.809 11.1104 160.809C14.4832 160.809 18.1536 159.916 21.7248 158.031C28.272 154.559 32.24 148.706 32.24 143.647C32.24 142.258 31.9424 140.869 31.248 139.58ZM26.9824 146.325C25.296 148.012 21.9232 150.095 18.352 152.079C14.7808 154.063 11.2096 155.551 8.8288 156.047C8.3328 156.146 7.8368 156.245 7.3408 156.245C5.7536 156.245 4.5632 155.65 3.8688 154.361C3.5712 153.865 3.3728 153.269 3.3728 152.674C3.3728 151.583 4.0672 150.293 5.1584 149.202C6.8448 147.516 10.1184 145.433 13.6896 143.449C17.2608 141.465 20.832 139.977 23.2128 139.481C23.7088 139.381 24.2048 139.282 24.7008 139.282C26.288 139.282 27.5776 139.877 28.272 141.167C28.5696 141.663 28.6688 142.258 28.6688 142.853C28.6688 143.945 28.0736 145.135 26.9824 146.325Z" fill="black"/>
<path d="M191.268 139.58C189.482 136.306 185.713 134.521 181.15 134.521C177.777 134.521 174.106 135.513 170.535 137.397C163.988 140.869 160.02 146.722 160.02 151.781C160.02 153.17 160.318 154.559 161.012 155.849C162.798 159.122 166.567 160.809 171.13 160.809C174.503 160.809 178.174 159.916 181.745 158.031C188.292 154.559 192.26 148.706 192.26 143.647C192.26 142.258 191.962 140.869 191.268 139.58ZM187.002 146.325C185.316 148.012 181.943 150.095 178.372 152.079C174.801 154.063 171.23 155.551 168.849 156.047C168.353 156.146 167.857 156.245 167.361 156.245C165.774 156.245 164.583 155.65 163.889 154.361C163.591 153.865 163.393 153.269 163.393 152.674C163.393 151.583 164.087 150.293 165.178 149.202C166.865 147.516 170.138 145.433 173.71 143.449C177.281 141.465 180.852 139.977 183.233 139.481C183.729 139.381 184.225 139.282 184.721 139.282C186.308 139.282 187.598 139.877 188.292 141.167C188.59 141.663 188.689 142.258 188.689 142.853C188.689 143.945 188.094 145.135 187.002 146.325Z" fill="black"/>
<path d="M351.278 139.58C349.492 136.306 345.723 134.521 341.16 134.521C337.787 134.521 334.116 135.513 330.545 137.397C323.998 140.869 320.03 146.722 320.03 151.781C320.03 153.17 320.328 154.559 321.022 155.849C322.808 159.122 326.577 160.809 331.14 160.809C334.513 160.809 338.184 159.916 341.755 158.031C348.302 154.559 352.27 148.706 352.27 143.647C352.27 142.258 351.972 140.869 351.278 139.58ZM347.012 146.325C345.326 148.012 341.953 150.095 338.382 152.079C334.811 154.063 331.24 155.551 328.859 156.047C328.363 156.146 327.867 156.245 327.371 156.245C325.784 156.245 324.593 155.65 323.899 154.361C323.601 153.865 323.403 153.269 323.403 152.674C323.403 151.583 324.097 150.293 325.188 149.202C326.875 147.516 330.148 145.433 333.72 143.449C337.291 141.465 340.862 139.977 343.243 139.481C343.739 139.381 344.235 139.282 344.731 139.282C346.318 139.282 347.608 139.877 348.302 141.167C348.6 141.663 348.699 142.258 348.699 142.853C348.699 143.945 348.104 145.135 347.012 146.325Z" fill="black"/>
<path d="M192.49 15.295C194.6 14.625 195.46 14.265 196.54 13.545C198.65 12.15 199.96 9.67503 199.96 7.15503C199.96 2.88003 196.54 0 191.5 0C186.59 0 182.45 3.06 182.45 6.75C182.45 8.595 183.58 9.85504 185.29 9.85504C186.77 9.85504 187.85 8.77504 187.85 7.29004C187.85 6.52504 187.63 5.98501 186.91 5.26501C186.46 4.86001 186.28 4.54504 186.28 4.23004C186.28 3.15004 188.53 2.02502 190.64 2.02502C193.66 2.02502 195.46 3.69004 195.46 6.48004C195.46 10.485 192.62 14.265 189.61 14.265C189.47 14.265 189.07 14.22 188.57 14.175C187.27 14.085 187.27 14.085 187 14.085C186.01 14.085 185.47 14.535 185.47 15.345C185.47 16.065 185.96 16.515 186.77 16.515C187 16.515 187.31 16.465 187.67 16.425C188.3 16.285 188.98 16.245 189.38 16.245C191.5 16.245 192.94 18.135 192.94 20.925C192.94 23.085 192.44 25.1551 191.45 26.8651C190.1 29.2951 188.03 30.465 185.11 30.465C182.59 30.465 180.43 29.205 180.43 27.765C180.43 27.265 180.61 27.085 181.33 26.775C182.63 26.185 183.17 25.375 183.17 24.165C183.17 22.585 181.91 21.375 180.29 21.375C178.36 21.375 177.1 22.905 177.1 25.245C177.1 29.605 180.43 32.355 185.83 32.355C192.62 32.355 197.8 27.805 197.8 21.775C197.8 20.155 197.3 18.765 196.36 17.635C195.37 16.465 194.47 15.925 192.49 15.295Z" fill="black"/>
<path d="M12.3999 34.775V16.175H164.7" stroke="black" stroke-width="2.48" stroke-linecap="square" stroke-linejoin="bevel"/>
<path d="M212.36 16.175H364.66V34.775" stroke="black" stroke-width="2.48" stroke-linecap="square" stroke-linejoin="bevel"/>
</svg>
