<svg width="499" height="161" viewBox="0 0 499 161" fill="none" xmlns="http://www.w3.org/2000/svg">
<path d="M30.8682 144.45V60.8198" stroke="black" stroke-width="2.73" stroke-linejoin="bevel"/>
<path d="M106.322 144.45V60.8198" stroke="black" stroke-width="2.73" stroke-linejoin="bevel"/>
<path d="M181.782 144.45V60.8198" stroke="black" stroke-width="2.73" stroke-linejoin="bevel"/>
<path d="M257.232 144.45V60.8198" stroke="black" stroke-width="2.73" stroke-linejoin="bevel"/>
<path d="M332.692 144.45V60.8198" stroke="black" stroke-width="2.73" stroke-linejoin="bevel"/>
<path d="M408.152 144.45V60.8198" stroke="black" stroke-width="2.73" stroke-linejoin="bevel"/>
<path d="M483.602 144.45V60.8198" stroke="black" stroke-width="2.73" stroke-linejoin="bevel"/>
<path d="M31.248 139.585C29.4624 136.311 25.6928 134.526 21.1296 134.526C17.7568 134.526 14.0864 135.518 10.5152 137.402C3.968 140.874 0 146.727 0 151.786C0 153.175 0.2976 154.564 0.992 155.854C2.7776 159.127 6.5472 160.814 11.1104 160.814C14.4832 160.814 18.1536 159.921 21.7248 158.036C28.272 154.564 32.24 148.711 32.24 143.652C32.24 142.263 31.9424 140.874 31.248 139.585Z" fill="black"/>
<path d="M106.7 139.585C104.915 136.311 101.145 134.526 96.5817 134.526C93.2089 134.526 89.5385 135.518 85.9673 137.402C79.4201 140.874 75.4521 146.727 75.4521 151.786C75.4521 153.175 75.7497 154.564 76.4441 155.854C78.2297 159.127 81.9993 160.814 86.5625 160.814C89.9353 160.814 93.6057 159.921 97.1769 158.036C103.724 154.564 107.692 148.711 107.692 143.652C107.692 142.263 107.395 140.874 106.7 139.585Z" fill="black"/>
<path d="M182.16 139.585C180.375 136.311 176.605 134.526 172.042 134.526C168.669 134.526 164.999 135.518 161.427 137.402C154.88 140.874 150.912 146.727 150.912 151.786C150.912 153.175 151.21 154.564 151.904 155.854C153.69 159.127 157.459 160.814 162.023 160.814C165.395 160.814 169.066 159.921 172.637 158.036C179.184 154.564 183.152 148.711 183.152 143.652C183.152 142.263 182.855 140.874 182.16 139.585Z" fill="black"/>
<path d="M257.62 139.585C255.834 136.311 252.065 134.526 247.502 134.526C244.129 134.526 240.458 135.518 236.887 137.402C230.34 140.874 226.372 146.727 226.372 151.786C226.372 153.175 226.67 154.564 227.364 155.854C229.15 159.127 232.919 160.814 237.482 160.814C240.855 160.814 244.526 159.921 248.097 158.036C254.644 154.564 258.612 148.711 258.612 143.652C258.612 142.263 258.314 140.874 257.62 139.585Z" fill="black"/>
<path d="M333.07 139.585C331.284 136.311 327.515 134.526 322.952 134.526C319.579 134.526 315.908 135.518 312.337 137.402C305.79 140.874 301.822 146.727 301.822 151.786C301.822 153.175 302.12 154.564 302.814 155.854C304.6 159.127 308.369 160.814 312.932 160.814C316.305 160.814 319.976 159.921 323.547 158.036C330.094 154.564 334.062 148.711 334.062 143.652C334.062 142.263 333.764 140.874 333.07 139.585Z" fill="black"/>
<path d="M408.53 139.585C406.744 136.311 402.975 134.526 398.412 134.526C395.039 134.526 391.368 135.518 387.797 137.402C381.25 140.874 377.282 146.727 377.282 151.786C377.282 153.175 377.58 154.564 378.274 155.854C380.06 159.127 383.829 160.814 388.392 160.814C391.765 160.814 395.436 159.921 399.007 158.036C405.554 154.564 409.522 148.711 409.522 143.652C409.522 142.263 409.224 140.874 408.53 139.585Z" fill="black"/>
<path d="M483.98 139.585C482.194 136.311 478.425 134.526 473.862 134.526C470.489 134.526 466.818 135.518 463.247 137.402C456.7 140.874 452.732 146.727 452.732 151.786C452.732 153.175 453.03 154.564 453.724 155.854C455.51 159.127 459.279 160.814 463.842 160.814C467.215 160.814 470.886 159.921 474.457 158.036C481.004 154.564 484.972 148.711 484.972 143.652C484.972 142.263 484.674 140.874 483.98 139.585Z" fill="black"/>
<path d="M265.972 0C263.592 0.27 260.662 0.449951 258.142 0.449951C256.882 0.449951 255.442 0.409824 253.822 0.319824C252.342 0.229824 250.852 0.140049 249.322 0.0500488L248.202 0L243.832 9.5L245.502 10.04L246.582 8.23999C248.692 4.72999 249.682 4.23003 254.272 4.28003H261.882L256.972 11.3C251.212 19.4 251.212 19.4 249.012 23C247.032 26.19 246.222 28.17 246.222 29.79C246.222 31.37 247.212 32.3599 248.782 32.3599C250.452 32.3599 251.302 31.5499 251.892 29.4299C254.142 20.9699 255.492 18.0499 261.742 7.91992L265.972 1.34985V0Z" fill="black"/>
<path d="M12.3999 34.78V16.1799H231.422" stroke="black" stroke-width="2.48" stroke-linecap="square" stroke-linejoin="bevel"/>
<path d="M278.342 16.1799H497.372V34.78" stroke="black" stroke-width="2.48" stroke-linecap="square" stroke-linejoin="bevel"/>
</svg>
