<svg width="96" height="102" viewBox="0 0 96 102" fill="none" xmlns="http://www.w3.org/2000/svg">
<path d="M33.1076 16.8528C32.3636 16.5949 31.6989 16.952 31.3914 17.5671C31.084 18.1821 28.2866 23.5687 24.0109 26.9415C22.6717 28.0029 21.1242 28.6873 19.5768 29.0644C20.6381 27.7748 21.2632 26.1181 21.2036 24.3127C21.0648 20.4042 17.7912 17.3488 13.8826 17.4877C9.97415 17.6266 6.91881 20.9002 7.05773 24.8087C7.16681 27.7945 9.10121 30.2745 11.7498 31.2269C13.2973 31.9015 15.1922 32.2685 17.2258 32.1991C20.0429 32.0999 23.0984 31.1673 25.7172 29.104C26.9373 28.1417 28.0781 26.9216 29.1098 25.632L29.1 25.6519L24.6458 41.4345C24.6458 41.4445 24.636 41.4544 24.626 41.4644V41.4743C24.1698 42.4265 20.9458 48.5472 16.9578 51.6919C15.6186 52.7533 14.0712 53.4378 12.5236 53.8147C13.585 52.5251 14.21 50.8685 14.1506 49.0631C14.0116 45.1545 10.738 42.0992 6.82959 42.2381C2.92107 42.3769 -0.134273 45.6505 0.00454933 49.5591C0.113728 52.545 2.04813 55.025 4.69679 55.9773C6.24427 56.6519 8.13895 57.0189 10.1725 56.9495C12.9898 56.8503 16.0452 55.9178 18.6642 53.8544C19.8744 52.9021 21.0152 51.6819 22.0468 50.3923L11.9186 86.5607L14.5672 87.3047L33.0877 21.6144L33.9608 18.5194C34.1592 17.7853 33.8516 17.1107 33.1076 16.8528Z" fill="black"/>
<path d="M68.8682 85.4055V1.7854" stroke="black" stroke-width="2.73" stroke-linejoin="bevel"/>
<path d="M69.248 80.5502C67.4624 77.2766 63.6928 75.491 59.1296 75.491C55.7568 75.491 52.0864 76.483 48.5152 78.3678C41.968 81.8398 38 87.6926 38 92.7518C38 94.1406 38.2976 95.5294 38.992 96.819C40.7776 100.093 44.5472 101.779 49.1104 101.779C52.4832 101.779 56.1536 100.886 59.7248 99.0014C66.272 95.5294 70.24 89.6766 70.24 84.6174C70.24 83.2286 69.9424 81.8398 69.248 80.5502Z" fill="black"/>
<path d="M95.2801 46.9216C95.181 41.7632 93.9906 36.4064 90.5186 31.9424C85.757 25.792 79.5073 22.7168 75.7378 17.2608C71.9682 11.8048 70.381 1.1904 70.381 1.1904C70.2818 0.496 70.0834 0 68.893 0C67.7026 0 67.5042 0.496 67.5042 1.1904V16.9632V22.816V34.4224V39.184C67.5042 39.3824 68.1986 39.9776 68.893 40.176C71.4722 41.168 79.3089 46.0288 85.261 54.8576C88.8321 60.3136 89.4274 63.984 89.4274 67.5552V68.6464C89.3281 71.1264 88.733 76.1856 87.2449 80.1536C86.9473 81.0464 86.4514 82.336 87.4433 82.832C88.4354 83.328 89.0306 82.2368 89.5266 81.5424C91.3122 78.6656 93.8913 73.408 93.8913 67.7536C93.8913 64.976 93.693 62.496 93.3953 60.4128C94.3874 56.8416 95.2801 52.3776 95.2801 47.7152V46.9216ZM88.2369 48.3104C85.5585 44.8384 82.5826 41.664 77.7218 36.8032C73.853 32.9344 72.0674 29.5616 71.373 26.9824C71.2738 26.784 71.2738 26.3872 71.1746 26.0896L71.2738 26.4864C75.7378 26.8832 81.789 31.3472 85.5586 35.9104C90.0226 41.2672 90.9153 45.4336 90.9153 49.3024C90.9153 50.2944 90.9153 51.1872 90.8162 52.1792C90.2209 51.088 89.0306 49.3024 88.2369 48.3104Z" fill="black"/>
</svg>
