<svg width="88" height="102" viewBox="0 0 88 102" fill="none" xmlns="http://www.w3.org/2000/svg">
<path d="M26.5162 29.1C25.782 28.8223 25.1075 29.1496 24.7802 29.7547C24.4528 30.3599 21.2981 36.2424 16.9036 39.4763C15.5248 40.4881 13.9573 41.1231 12.4 41.4504C13.5109 40.2005 14.1856 38.5537 14.1856 36.7483C14.1856 32.8299 11.0112 29.6555 7.0928 29.6555C3.1744 29.6555 0 32.8299 0 36.7483C0 39.7343 1.85496 42.2936 4.47388 43.3352C5.99162 44.0593 7.8864 44.4959 9.92 44.4959C12.7472 44.4959 15.8323 43.6725 18.5205 41.6984C19.7706 40.7759 20.961 39.5953 22.0323 38.3455L10.7333 73.6904L13.3523 74.5336L27.3098 30.7963C27.5379 30.0721 27.2501 29.3877 26.5162 29.1Z" fill="black"/>
<path d="M59.8701 84.8203V1.19043" stroke="black" stroke-width="2.73" stroke-linejoin="bevel"/>
<path d="M60.248 79.9552C58.4624 76.6816 54.6928 74.896 50.1296 74.896C46.7568 74.896 43.0864 75.888 39.5152 77.7728C32.968 81.2448 29 87.0976 29 92.1568C29 93.5456 29.2976 94.9344 29.992 96.224C31.7776 99.4976 35.5472 101.184 40.1104 101.184C43.4832 101.184 47.1536 100.291 50.7248 98.4064C57.272 94.9344 61.24 89.0816 61.24 84.0224C61.24 82.6336 60.9424 81.2448 60.248 79.9552Z" fill="black"/>
<path d="M61.982 4.6624C61.8828 4.3648 60.99 0.8928 60.99 0.6944C60.8908 0.2976 60.2956 0 59.7996 0C59.1052 0 58.51 0.5952 58.51 1.2896V17.5584V23.7088C58.51 24.2048 58.9068 24.6016 59.3036 24.8C63.47 26.0896 72.1004 31.5456 78.5484 42.5568C80.334 45.632 83.2108 49.7984 83.2108 58.1312C83.2108 65.2736 82.1196 72.8128 80.334 79.7568C80.0364 80.848 79.7388 81.84 80.83 82.2368C81.9212 82.6336 82.318 81.84 82.7148 80.848C86.286 72.1184 87.1788 62.992 87.1788 56.8416V54.9568C86.6828 42.16 79.342 32.736 79.342 32.736C79.6396 32.736 70.2156 20.5344 67.5372 16.368C63.8668 10.7136 62.0812 5.0592 61.982 4.6624Z" fill="black"/>
</svg>
