<svg width="329" height="160" viewBox="0 0 329 160" fill="none" xmlns="http://www.w3.org/2000/svg">
<path d="M30.8699 143.2V71.98" stroke="black" stroke-width="2.73" stroke-linejoin="bevel"/>
<path d="M104.99 143.2V71.98" stroke="black" stroke-width="2.73" stroke-linejoin="bevel"/>
<path d="M179.12 143.2V71.98" stroke="black" stroke-width="2.73" stroke-linejoin="bevel"/>
<path d="M253.24 143.2V71.98" stroke="black" stroke-width="2.73" stroke-linejoin="bevel"/>
<path d="M327.37 143.2V71.98" stroke="black" stroke-width="2.73" stroke-linejoin="bevel"/>
<path d="M31.248 138.345C29.4624 135.071 25.6928 133.286 21.1296 133.286C17.7568 133.286 14.0864 134.278 10.5152 136.162C3.968 139.634 0 145.487 0 150.546C0 151.935 0.2976 153.324 0.992 154.614C2.7776 157.887 6.5472 159.574 11.1104 159.574C14.4832 159.574 18.1536 158.681 21.7248 156.796C28.272 153.324 32.24 147.471 32.24 142.412C32.24 141.023 31.9424 139.634 31.248 138.345Z" fill="black"/>
<path d="M105.368 138.345C103.582 135.071 99.8127 133.286 95.2495 133.286C91.8767 133.286 88.2063 134.278 84.6351 136.162C78.0879 139.634 74.1199 145.487 74.1199 150.546C74.1199 151.935 74.4175 153.324 75.1119 154.614C76.8975 157.887 80.6671 159.574 85.2303 159.574C88.6031 159.574 92.2735 158.681 95.8447 156.796C102.392 153.324 106.36 147.471 106.36 142.412C106.36 141.023 106.062 139.634 105.368 138.345Z" fill="black"/>
<path d="M179.498 138.345C177.712 135.071 173.943 133.286 169.38 133.286C166.007 133.286 162.336 134.278 158.765 136.162C152.218 139.634 148.25 145.487 148.25 150.546C148.25 151.935 148.548 153.324 149.242 154.614C151.028 157.887 154.797 159.574 159.36 159.574C162.733 159.574 166.404 158.681 169.975 156.796C176.522 153.324 180.49 147.471 180.49 142.412C180.49 141.023 180.192 139.634 179.498 138.345Z" fill="black"/>
<path d="M253.618 138.345C251.832 135.071 248.063 133.286 243.499 133.286C240.127 133.286 236.456 134.278 232.885 136.162C226.338 139.634 222.37 145.487 222.37 150.546C222.37 151.935 222.667 153.324 223.362 154.614C225.147 157.887 228.917 159.574 233.48 159.574C236.853 159.574 240.523 158.681 244.095 156.796C250.642 153.324 254.61 147.471 254.61 142.412C254.61 141.023 254.312 139.634 253.618 138.345Z" fill="black"/>
<path d="M327.748 138.345C325.962 135.071 322.193 133.286 317.63 133.286C314.257 133.286 310.586 134.278 307.015 136.162C300.468 139.634 296.5 145.487 296.5 150.546C296.5 151.935 296.798 153.324 297.492 154.614C299.278 157.887 303.047 159.574 307.61 159.574C310.983 159.574 314.654 158.681 318.225 156.796C324.772 153.324 328.74 147.471 328.74 142.412C328.74 141.023 328.442 139.634 327.748 138.345Z" fill="black"/>
<path fill-rule="evenodd" clip-rule="evenodd" d="M29.5 65.7799H328.73V78.1799H29.5V65.7799Z" fill="black"/>
<path d="M170.57 14.4399C169.18 15.2999 168.77 15.84 168.77 16.74C168.77 17.59 169.49 18.22 170.39 18.22C171.56 18.22 172.24 17.37 172.37 15.7C173.77 14.58 175.25 14.08 177.05 14.08C180.38 14.08 182.23 16.1499 182.23 19.8899C182.23 25.7399 178.45 30.5099 173.81 30.5099C171.16 30.5099 169 29.2499 169 27.7599C169 27.4899 169.04 27.3999 169.27 27.2699C170.44 26.7299 170.44 26.73 170.75 26.5C171.47 25.96 171.88 25.15 171.88 24.21C171.88 22.77 170.75 21.6899 169.18 21.6899C167.2 21.6899 165.71 23.3499 165.71 25.5099C165.71 29.4699 169.13 32.35 173.95 32.35C181.24 32.35 187.13 26.55 187.13 19.35C187.13 14.8 183.67 11.61 178.76 11.61C176.83 11.61 175.25 12.01 173.09 13.09L175.61 4.58997C178 5.07997 179.89 5.30994 181.51 5.30994C184.48 5.30994 187.13 4.35992 188.62 2.78992C189.38 1.88992 189.83 1.11992 189.83 0.539917C189.83 0.269917 189.7 0 189.52 0C189.38 0 189.29 0.0399316 189.02 0.179932C187.54 0.899932 185.65 1.29993 183.89 1.29993C181.19 1.29993 178 0.85 174.67 0L170.57 14.4399Z" fill="black"/>
</svg>
