<svg width="261" height="160" viewBox="0 0 261 160" fill="none" xmlns="http://www.w3.org/2000/svg">
<path d="M30.8701 143.2V71.98" stroke="black" stroke-width="2.73" stroke-linejoin="bevel"/>
<path d="M87.9302 143.2V71.98" stroke="black" stroke-width="2.73" stroke-linejoin="bevel"/>
<path d="M144.99 143.2V71.98" stroke="black" stroke-width="2.73" stroke-linejoin="bevel"/>
<path d="M202.05 143.2V71.98" stroke="black" stroke-width="2.73" stroke-linejoin="bevel"/>
<path d="M259.11 143.2V71.98" stroke="black" stroke-width="2.73" stroke-linejoin="bevel"/>
<path d="M31.248 138.345C29.4624 135.071 25.6928 133.286 21.1296 133.286C17.7568 133.286 14.0864 134.278 10.5152 136.162C3.968 139.634 0 145.487 0 150.546C0 151.935 0.2976 153.324 0.992 154.614C2.7776 157.887 6.5472 159.574 11.1104 159.574C14.4832 159.574 18.1536 158.681 21.7248 156.796C28.272 153.324 32.24 147.471 32.24 142.412C32.24 141.023 31.9424 139.634 31.248 138.345Z" fill="black"/>
<path d="M88.3081 138.345C86.5225 135.071 82.7529 133.286 78.1897 133.286C74.8169 133.286 71.1465 134.278 67.5753 136.162C61.0281 139.634 57.0601 145.487 57.0601 150.546C57.0601 151.935 57.3577 153.324 58.0521 154.614C59.8377 157.887 63.6073 159.574 68.1705 159.574C71.5433 159.574 75.2137 158.681 78.7849 156.796C85.3321 153.324 89.3001 147.471 89.3001 142.412C89.3001 141.023 89.0025 139.634 88.3081 138.345Z" fill="black"/>
<path d="M145.368 138.345C143.583 135.071 139.813 133.286 135.25 133.286C131.877 133.286 128.207 134.278 124.635 136.162C118.088 139.634 114.12 145.487 114.12 150.546C114.12 151.935 114.418 153.324 115.112 154.614C116.898 157.887 120.667 159.574 125.231 159.574C128.603 159.574 132.274 158.681 135.845 156.796C142.392 153.324 146.36 147.471 146.36 142.412C146.36 141.023 146.063 139.634 145.368 138.345Z" fill="black"/>
<path d="M202.428 138.345C200.643 135.071 196.873 133.286 192.31 133.286C188.937 133.286 185.267 134.278 181.695 136.162C175.148 139.634 171.18 145.487 171.18 150.546C171.18 151.935 171.478 153.324 172.172 154.614C173.958 157.887 177.727 159.574 182.291 159.574C185.663 159.574 189.334 158.681 192.905 156.796C199.452 153.324 203.42 147.471 203.42 142.412C203.42 141.023 203.123 139.634 202.428 138.345Z" fill="black"/>
<path d="M259.488 138.345C257.702 135.071 253.933 133.286 249.37 133.286C245.997 133.286 242.326 134.278 238.755 136.162C232.208 139.634 228.24 145.487 228.24 150.546C228.24 151.935 228.538 153.324 229.232 154.614C231.018 157.887 234.787 159.574 239.35 159.574C242.723 159.574 246.394 158.681 249.965 156.796C256.512 153.324 260.48 147.471 260.48 142.412C260.48 141.023 260.182 139.634 259.488 138.345Z" fill="black"/>
<path fill-rule="evenodd" clip-rule="evenodd" d="M29.5 65.7799H260.47V78.1799H29.5V65.7799Z" fill="black"/>
<path fill-rule="evenodd" clip-rule="evenodd" d="M29.5 84.38H260.47V96.7799H29.5V84.38Z" fill="black"/>
<path d="M136.45 14.4399C135.05 15.2999 134.65 15.84 134.65 16.74C134.65 17.59 135.37 18.22 136.27 18.22C137.44 18.22 138.11 17.37 138.25 15.7C139.64 14.58 141.13 14.08 142.93 14.08C146.26 14.08 148.1 16.1499 148.1 19.8899C148.1 25.7399 144.32 30.5099 139.69 30.5099C137.03 30.5099 134.87 29.2499 134.87 27.7599C134.87 27.4899 134.92 27.3999 135.14 27.2699C136.31 26.7299 136.31 26.73 136.63 26.5C137.35 25.96 137.75 25.15 137.75 24.21C137.75 22.77 136.63 21.6899 135.05 21.6899C133.07 21.6899 131.59 23.3499 131.59 25.5099C131.59 29.4699 135.01 32.35 139.82 32.35C147.11 32.35 153.01 26.55 153.01 19.35C153.01 14.8 149.54 11.61 144.64 11.61C142.7 11.61 141.13 12.01 138.97 13.09L141.49 4.58997C143.87 5.07997 145.76 5.30994 147.38 5.30994C150.35 5.30994 153.01 4.35992 154.49 2.78992C155.26 1.88992 155.71 1.11992 155.71 0.539917C155.71 0.269917 155.57 0 155.39 0C155.26 0 155.17 0.0399316 154.9 0.179932C153.41 0.899932 151.52 1.29993 149.77 1.29993C147.07 1.29993 143.87 0.85 140.54 0L136.45 14.4399Z" fill="black"/>
</svg>
