<svg width="70" height="100" viewBox="0 0 70 100" fill="none" xmlns="http://www.w3.org/2000/svg">
<path d="M67.8699 83.6299V0" stroke="black" stroke-width="2.73" stroke-linejoin="bevel"/>
<path d="M68.248 78.7648C66.4624 75.4912 62.6928 73.7056 58.1296 73.7056C54.7568 73.7056 51.0864 74.6976 47.5152 76.5824C40.968 80.0544 37 85.9072 37 90.9664C37 92.3552 37.2976 93.744 37.992 95.0336C39.7776 98.3072 43.5472 99.9936 48.1104 99.9936C51.4832 99.9936 55.1536 99.1008 58.7248 97.216C65.272 93.744 69.24 87.8912 69.24 82.832C69.24 81.4432 68.9424 80.0544 68.248 78.7648Z" fill="black"/>
<path d="M23.0144 70.5784L22.816 70.2808C22.7168 70.1816 22.5184 69.9832 22.2208 69.5864L10.8128 55.5C10.5152 55.2024 10.6144 54.4088 10.8128 54.012L20.9312 38.7352C21.0304 38.5368 21.1296 38.2392 21.1296 38.0408V37.148C21.1296 36.8504 21.0304 36.5528 20.832 36.3544L4.7616 14.6296C4.7616 14.6296 3.968 13.4392 2.976 14.332C1.984 15.1256 2.7776 16.4152 2.7776 16.4152L10.3168 26.732C10.7136 27.3272 10.7136 28.5176 10.3168 29.1128L0.2976 44.3896C0.1984 44.588 0.0992 44.9848 0.0992 45.1832V46.076C0.0992 46.3736 0.1984 46.6712 0.3968 46.8696L11.5072 60.6584C11.1104 60.5592 10.2176 60.3608 9.0272 60.3608C7.3408 60.3608 5.1584 60.7576 3.3728 62.3448C1.1904 64.3288 0 67.1064 0 69.5864C0 70.9752 0.2976 72.364 1.0912 73.4552C3.1744 76.6296 10.6144 86.0536 10.6144 86.0536C10.6144 86.0536 11.5072 87.1448 12.4 86.4504C13.2928 85.756 13.0944 84.8632 12.7968 84.3672C12.4992 83.8712 9.3248 78.1176 9.3248 78.1176C9.3248 78.1176 8.6304 76.7288 8.6304 74.9432C8.6304 73.6536 9.0272 72.0664 10.3168 70.7768C11.5072 69.5864 12.896 69.1896 14.1856 69.1896C15.4752 69.1896 16.5664 69.5864 17.36 70.0824L21.2288 72.5624C21.2288 72.5624 22.4192 73.1576 23.0144 72.2648C23.5104 71.4712 23.312 71.0744 23.0144 70.5784Z" fill="black"/>
</svg>
