<svg width="179" height="160" viewBox="0 0 179 160" fill="none" xmlns="http://www.w3.org/2000/svg">
<path d="M30.8689 143.21V71.98" stroke="black" stroke-width="2.73" stroke-linejoin="bevel"/>
<path d="M104.171 143.21V71.98" stroke="black" stroke-width="2.73" stroke-linejoin="bevel"/>
<path d="M177.481 143.21V71.98" stroke="black" stroke-width="2.73" stroke-linejoin="bevel"/>
<path d="M31.248 138.345C29.4624 135.071 25.6928 133.286 21.1296 133.286C17.7568 133.286 14.0864 134.278 10.5152 136.162C3.968 139.634 0 145.487 0 150.546C0 151.935 0.2976 153.324 0.992 154.614C2.7776 157.887 6.5472 159.574 11.1104 159.574C14.4832 159.574 18.1536 158.681 21.7248 156.796C28.272 153.324 32.24 147.471 32.24 142.412C32.24 141.023 31.9424 139.634 31.248 138.345Z" fill="black"/>
<path d="M104.555 138.345C102.77 135.071 98.9999 133.286 94.4367 133.286C91.0639 133.286 87.3935 134.278 83.8223 136.162C77.2751 139.634 73.3071 145.487 73.3071 150.546C73.3071 151.935 73.6047 153.324 74.2991 154.614C76.0847 157.887 79.8543 159.574 84.4175 159.574C87.7903 159.574 91.4607 158.681 95.0319 156.796C101.579 153.324 105.547 147.471 105.547 142.412C105.547 141.023 105.25 139.634 104.555 138.345Z" fill="black"/>
<path d="M177.859 138.345C176.073 135.071 172.304 133.286 167.741 133.286C164.368 133.286 160.697 134.278 157.126 136.162C150.579 139.634 146.611 145.487 146.611 150.546C146.611 151.935 146.909 153.324 147.603 154.614C149.389 157.887 153.158 159.574 157.721 159.574C161.094 159.574 164.765 158.681 168.336 156.796C174.883 153.324 178.851 147.471 178.851 142.412C178.851 141.023 178.553 139.634 177.859 138.345Z" fill="black"/>
<path fill-rule="evenodd" clip-rule="evenodd" d="M29.5051 65.7799H178.851V78.1799H29.5051V65.7799Z" fill="black"/>
<path d="M106.771 15.2999C108.881 14.6299 109.741 14.2699 110.821 13.5499C112.931 12.1499 114.241 9.67991 114.241 7.15991C114.241 2.87991 110.821 0 105.781 0C100.871 0 96.7332 3.06 96.7332 6.75C96.7332 8.6 97.8582 9.85999 99.5682 9.85999C101.051 9.85999 102.131 8.77992 102.131 7.28992C102.131 6.52992 101.911 5.99002 101.191 5.27002C100.741 4.86002 100.561 4.54998 100.561 4.22998C100.561 3.14998 102.811 2.02991 104.921 2.02991C107.941 2.02991 109.741 3.68998 109.741 6.47998C109.741 10.49 106.901 14.27 103.891 14.27C103.751 14.27 103.351 14.2199 102.851 14.1799C101.551 14.0899 101.551 14.09 101.281 14.09C100.291 14.09 99.7482 14.54 99.7482 15.35C99.7482 16.07 100.241 16.52 101.051 16.52C101.281 16.52 101.591 16.4699 101.951 16.4299C102.581 16.2899 103.261 16.25 103.661 16.25C105.781 16.25 107.221 18.1399 107.221 20.9299C107.221 23.0899 106.721 25.16 105.731 26.87C104.381 29.3 102.311 30.47 99.3882 30.47C96.8682 30.47 94.7082 29.21 94.7082 27.77C94.7082 27.27 94.8882 27.0899 95.6082 26.7799C96.9132 26.1899 97.4532 25.3799 97.4532 24.1699C97.4532 22.5899 96.1932 21.38 94.5732 21.38C92.6382 21.38 91.3782 22.91 91.3782 25.25C91.3782 29.61 94.7081 32.36 100.111 32.36C106.901 32.36 112.081 27.8099 112.081 21.7799C112.081 20.1599 111.581 18.77 110.641 17.64C109.651 16.47 108.751 15.9299 106.771 15.2999Z" fill="black"/>
</svg>
