<svg width="59" height="102" viewBox="0 0 59 102" fill="none" xmlns="http://www.w3.org/2000/svg">
<path d="M30.8679 84.8204V1.19043" stroke="black" stroke-width="2.73" stroke-linejoin="bevel"/>
<path d="M31.248 79.9552C29.4624 76.6816 25.6928 74.896 21.1296 74.896C17.7568 74.896 14.0864 75.888 10.5152 77.7728C3.968 81.2448 0 87.0976 0 92.1568C0 93.5456 0.2976 94.9344 0.992 96.224C2.7776 99.4976 6.5472 101.184 11.1104 101.184C14.4832 101.184 18.1536 100.291 21.7248 98.4064C28.272 94.9344 32.24 89.0816 32.24 84.0224C32.24 82.6336 31.9424 81.2448 31.248 79.9552Z" fill="black"/>
<path d="M32.9759 4.6624C32.8767 4.3648 31.9839 0.8928 31.9839 0.6944C31.8847 0.2976 31.2895 0 30.7935 0C30.0991 0 29.5039 0.5952 29.5039 1.2896V17.5584V23.7088C29.5039 24.2048 29.9007 24.6016 30.2975 24.8C34.4639 26.0896 43.0943 31.5456 49.5423 42.5568C51.3279 45.632 54.2047 49.7984 54.2047 58.1312C54.2047 65.2736 53.1135 72.8128 51.3279 79.7568C51.0303 80.848 50.7327 81.84 51.8239 82.2368C52.9151 82.6336 53.3119 81.84 53.7087 80.848C57.2799 72.1184 58.1727 62.992 58.1727 56.8416V54.9568C57.6767 42.16 50.3359 32.736 50.3359 32.736C50.6335 32.736 41.2095 20.5344 38.5311 16.368C34.8607 10.7136 33.0751 5.0592 32.9759 4.6624Z" fill="black"/>
</svg>
