<svg width="144" height="160" viewBox="0 0 144 160" fill="none" xmlns="http://www.w3.org/2000/svg">
<path d="M30.8699 143.21V71.98" stroke="black" stroke-width="2.73" stroke-linejoin="bevel"/>
<path d="M86.6799 143.21V71.98" stroke="black" stroke-width="2.73" stroke-linejoin="bevel"/>
<path d="M142.49 143.21V71.98" stroke="black" stroke-width="2.73" stroke-linejoin="bevel"/>
<path d="M31.248 138.345C29.4624 135.071 25.6928 133.286 21.1296 133.286C17.7568 133.286 14.0864 134.278 10.5152 136.162C3.968 139.634 0 145.487 0 150.546C0 151.935 0.2976 153.324 0.992 154.614C2.7776 157.887 6.5472 159.574 11.1104 159.574C14.4832 159.574 18.1536 158.681 21.7248 156.796C28.272 153.324 32.24 147.471 32.24 142.412C32.24 141.023 31.9424 139.634 31.248 138.345Z" fill="black"/>
<path d="M87.0581 138.345C85.2725 135.071 81.5029 133.286 76.9397 133.286C73.5669 133.286 69.8965 134.278 66.3253 136.162C59.7781 139.634 55.8101 145.487 55.8101 150.546C55.8101 151.935 56.1077 153.324 56.8021 154.614C58.5877 157.887 62.3573 159.574 66.9205 159.574C70.2933 159.574 73.9637 158.681 77.5349 156.796C84.0821 153.324 88.0501 147.471 88.0501 142.412C88.0501 141.023 87.7525 139.634 87.0581 138.345Z" fill="black"/>
<path d="M142.878 138.345C141.092 135.071 137.323 133.286 132.759 133.286C129.387 133.286 125.716 134.278 122.145 136.162C115.598 139.634 111.63 145.487 111.63 150.546C111.63 151.935 111.927 153.324 112.622 154.614C114.407 157.887 118.177 159.574 122.74 159.574C126.113 159.574 129.783 158.681 133.355 156.796C139.902 153.324 143.87 147.471 143.87 142.412C143.87 141.023 143.572 139.634 142.878 138.345Z" fill="black"/>
<path fill-rule="evenodd" clip-rule="evenodd" d="M29.5 65.7799H143.86V78.1799H29.5V65.7799Z" fill="black"/>
<path fill-rule="evenodd" clip-rule="evenodd" d="M29.5 84.38H143.86V96.7799H29.5V84.38Z" fill="black"/>
<path d="M89.2699 15.2999C91.3899 14.6299 92.2399 14.2699 93.3199 13.5499C95.4399 12.1499 96.7399 9.67991 96.7399 7.15991C96.7399 2.87991 93.3199 0 88.2799 0C83.3799 0 79.2399 3.06 79.2399 6.75C79.2399 8.6 80.3599 9.85999 82.0699 9.85999C83.5599 9.85999 84.6399 8.77992 84.6399 7.28992C84.6399 6.52992 84.4099 5.99002 83.6899 5.27002C83.2399 4.86002 83.0599 4.54998 83.0599 4.22998C83.0599 3.14998 85.3099 2.02991 87.4299 2.02991C90.4399 2.02991 92.2399 3.68998 92.2399 6.47998C92.2399 10.49 89.4099 14.27 86.3899 14.27C86.2599 14.27 85.8499 14.2199 85.3599 14.1799C84.0499 14.0899 84.0499 14.09 83.7799 14.09C82.7899 14.09 82.2499 14.54 82.2499 15.35C82.2499 16.07 82.7499 16.52 83.5599 16.52C83.7799 16.52 84.1 16.4699 84.46 16.4299C85.09 16.2899 85.7599 16.25 86.1699 16.25C88.2799 16.25 89.72 18.1399 89.72 20.9299C89.72 23.0899 89.2299 25.16 88.2399 26.87C86.8899 29.3 84.8199 30.47 81.8899 30.47C79.3699 30.47 77.21 29.21 77.21 27.77C77.21 27.27 77.3899 27.0899 78.1099 26.7799C79.4199 26.1899 79.96 25.3799 79.96 24.1699C79.96 22.5899 78.7 21.38 77.08 21.38C75.14 21.38 73.8799 22.91 73.8799 25.25C73.8799 29.61 77.2099 32.36 82.6099 32.36C89.4099 32.36 94.58 27.8099 94.58 21.7799C94.58 20.1599 94.0899 18.77 93.1399 17.64C92.1499 16.47 91.2499 15.9299 89.2699 15.2999Z" fill="black"/>
</svg>
