<svg width="319" height="160" viewBox="0 0 319 160" fill="none" xmlns="http://www.w3.org/2000/svg">
<path d="M30.8699 143.21V71.98" stroke="black" stroke-width="2.73" stroke-linejoin="bevel"/>
<path d="M78.5198 143.21V71.98" stroke="black" stroke-width="2.73" stroke-linejoin="bevel"/>
<path d="M126.17 143.21V71.98" stroke="black" stroke-width="2.73" stroke-linejoin="bevel"/>
<path d="M173.82 143.21V71.98" stroke="black" stroke-width="2.73" stroke-linejoin="bevel"/>
<path d="M221.47 143.21V71.98" stroke="black" stroke-width="2.73" stroke-linejoin="bevel"/>
<path d="M269.12 143.21V71.98" stroke="black" stroke-width="2.73" stroke-linejoin="bevel"/>
<path d="M316.77 143.21V71.98" stroke="black" stroke-width="2.73" stroke-linejoin="bevel"/>
<path d="M31.248 138.345C29.4624 135.071 25.6928 133.286 21.1296 133.286C17.7568 133.286 14.0864 134.278 10.5152 136.162C3.968 139.634 0 145.487 0 150.546C0 151.935 0.2976 153.324 0.992 154.614C2.7776 157.887 6.5472 159.574 11.1104 159.574C14.4832 159.574 18.1536 158.681 21.7248 156.796C28.272 153.324 32.24 147.471 32.24 142.412C32.24 141.023 31.9424 139.634 31.248 138.345Z" fill="black"/>
<path d="M78.8979 138.345C77.1123 135.071 73.3427 133.286 68.7795 133.286C65.4067 133.286 61.7363 134.278 58.1651 136.162C51.6179 139.634 47.6499 145.487 47.6499 150.546C47.6499 151.935 47.9475 153.324 48.6419 154.614C50.4275 157.887 54.1971 159.574 58.7603 159.574C62.1331 159.574 65.8035 158.681 69.3747 156.796C75.9219 153.324 79.8899 147.471 79.8899 142.412C79.8899 141.023 79.5923 139.634 78.8979 138.345Z" fill="black"/>
<path d="M126.548 138.345C124.762 135.071 120.993 133.286 116.429 133.286C113.057 133.286 109.386 134.278 105.815 136.162C99.2678 139.634 95.2998 145.487 95.2998 150.546C95.2998 151.935 95.5974 153.324 96.2918 154.614C98.0774 157.887 101.847 159.574 106.41 159.574C109.783 159.574 113.453 158.681 117.025 156.796C123.572 153.324 127.54 147.471 127.54 142.412C127.54 141.023 127.242 139.634 126.548 138.345Z" fill="black"/>
<path d="M174.198 138.345C172.412 135.071 168.643 133.286 164.08 133.286C160.707 133.286 157.036 134.278 153.465 136.162C146.918 139.634 142.95 145.487 142.95 150.546C142.95 151.935 143.248 153.324 143.942 154.614C145.728 157.887 149.497 159.574 154.06 159.574C157.433 159.574 161.104 158.681 164.675 156.796C171.222 153.324 175.19 147.471 175.19 142.412C175.19 141.023 174.892 139.634 174.198 138.345Z" fill="black"/>
<path d="M221.848 138.345C220.062 135.071 216.293 133.286 211.729 133.286C208.357 133.286 204.686 134.278 201.115 136.162C194.568 139.634 190.6 145.487 190.6 150.546C190.6 151.935 190.897 153.324 191.592 154.614C193.377 157.887 197.147 159.574 201.71 159.574C205.083 159.574 208.753 158.681 212.325 156.796C218.872 153.324 222.84 147.471 222.84 142.412C222.84 141.023 222.542 139.634 221.848 138.345Z" fill="black"/>
<path d="M269.498 138.345C267.712 135.071 263.943 133.286 259.38 133.286C256.007 133.286 252.336 134.278 248.765 136.162C242.218 139.634 238.25 145.487 238.25 150.546C238.25 151.935 238.548 153.324 239.242 154.614C241.028 157.887 244.797 159.574 249.36 159.574C252.733 159.574 256.404 158.681 259.975 156.796C266.522 153.324 270.49 147.471 270.49 142.412C270.49 141.023 270.192 139.634 269.498 138.345Z" fill="black"/>
<path d="M317.148 138.345C315.362 135.071 311.593 133.286 307.03 133.286C303.657 133.286 299.986 134.278 296.415 136.162C289.868 139.634 285.9 145.487 285.9 150.546C285.9 151.935 286.198 153.324 286.892 154.614C288.678 157.887 292.447 159.574 297.01 159.574C300.383 159.574 304.054 158.681 307.625 156.796C314.172 153.324 318.14 147.471 318.14 142.412C318.14 141.023 317.842 139.634 317.148 138.345Z" fill="black"/>
<path fill-rule="evenodd" clip-rule="evenodd" d="M29.51 65.78H318.14V78.1799H29.51V65.78Z" fill="black"/>
<path fill-rule="evenodd" clip-rule="evenodd" d="M29.51 84.3799H318.14V96.78H29.51V84.3799Z" fill="black"/>
<path d="M183.55 0C181.16 0.27 178.24 0.449951 175.72 0.449951C174.46 0.449951 173.02 0.409824 171.4 0.319824C169.91 0.229824 168.43 0.140049 166.9 0.0500488L165.77 0L161.41 9.5L163.07 10.04L164.15 8.23999C166.27 4.72999 167.26 4.23003 171.85 4.28003H179.45L174.55 11.3C168.79 19.4 168.79 19.4 166.58 23C164.6 26.19 163.79 28.17 163.79 29.79C163.79 31.37 164.78 32.3599 166.36 32.3599C168.02 32.3599 168.88 31.5499 169.46 29.4299C171.71 20.9699 173.06 18.0499 179.32 7.91992L183.55 1.34985V0Z" fill="black"/>
</svg>
