<svg width="58" height="102" viewBox="0 0 58 102" fill="none" xmlns="http://www.w3.org/2000/svg">
<path d="M30.8679 85.4155V1.78552" stroke="black" stroke-width="2.73" stroke-linejoin="bevel"/>
<path d="M31.248 80.5503C29.4624 77.2767 25.6928 75.4911 21.1296 75.4911C17.7568 75.4911 14.0864 76.4831 10.5152 78.3679C3.968 81.8399 0 87.6927 0 92.7519C0 94.1407 0.2976 95.5295 0.992 96.8191C2.7776 100.093 6.5472 101.779 11.1104 101.779C14.4832 101.779 18.1536 100.886 21.7248 99.0015C28.272 95.5295 32.24 89.6767 32.24 84.6175C32.24 83.2287 31.9424 81.8399 31.248 80.5503Z" fill="black"/>
<path d="M57.2799 46.9216C57.1807 41.7632 55.9903 36.4064 52.5183 31.9424C47.7567 25.792 41.5071 22.7168 37.7375 17.2608C33.9679 11.8048 32.3807 1.1904 32.3807 1.1904C32.2815 0.496 32.0831 0 30.8927 0C29.7023 0 29.5039 0.496 29.5039 1.1904V16.9632V22.816V34.4224V39.184C29.5039 39.3824 30.1983 39.9776 30.8927 40.176C33.4719 41.168 41.3087 46.0288 47.2607 54.8576C50.8319 60.3136 51.4271 63.984 51.4271 67.5552V68.6464C51.3279 71.1264 50.7327 76.1856 49.2447 80.1536C48.9471 81.0464 48.4511 82.336 49.4431 82.832C50.4351 83.328 51.0303 82.2368 51.5263 81.5424C53.3119 78.6656 55.8911 73.408 55.8911 67.7536C55.8911 64.976 55.6927 62.496 55.3951 60.4128C56.3871 56.8416 57.2799 52.3776 57.2799 47.7152V46.9216ZM50.2367 48.3104C47.5583 44.8384 44.5823 41.664 39.7215 36.8032C35.8527 32.9344 34.0671 29.5616 33.3727 26.9824C33.2735 26.784 33.2735 26.3872 33.1743 26.0896L33.2735 26.4864C37.7375 26.8832 43.7887 31.3472 47.5583 35.9104C52.0223 41.2672 52.9151 45.4336 52.9151 49.3024C52.9151 50.2944 52.9151 51.1872 52.8159 52.1792C52.2207 51.088 51.0303 49.3024 50.2367 48.3104Z" fill="black"/>
</svg>
