<svg width="197" height="161" viewBox="0 0 197 161" fill="none" xmlns="http://www.w3.org/2000/svg">
<path d="M30.8679 144.57V54.74" stroke="black" stroke-width="2.73" stroke-linejoin="bevel"/>
<path d="M71.8438 144.57V54.74" stroke="black" stroke-width="2.73" stroke-linejoin="bevel"/>
<path d="M112.82 144.57V54.74" stroke="black" stroke-width="2.73" stroke-linejoin="bevel"/>
<path d="M153.796 144.57V54.74" stroke="black" stroke-width="2.73" stroke-linejoin="bevel"/>
<path d="M194.772 144.57V54.74" stroke="black" stroke-width="2.73" stroke-linejoin="bevel"/>
<path d="M31.248 139.705C29.4624 136.431 25.6928 134.646 21.1296 134.646C17.7568 134.646 14.0864 135.638 10.5152 137.523C3.968 140.995 0 146.847 0 151.907C0 153.295 0.2976 154.684 0.992 155.974C2.7776 159.247 6.5472 160.934 11.1104 160.934C14.4832 160.934 18.1536 160.041 21.7248 158.156C28.272 154.684 32.24 148.831 32.24 143.772C32.24 142.383 31.9424 140.995 31.248 139.705Z" fill="black"/>
<path d="M72.2238 139.705C70.4382 136.431 66.6686 134.646 62.1054 134.646C58.7326 134.646 55.0622 135.638 51.491 137.523C44.9438 140.995 40.9758 146.847 40.9758 151.907C40.9758 153.295 41.2734 154.684 41.9678 155.974C43.7534 159.247 47.523 160.934 52.0862 160.934C55.459 160.934 59.1294 160.041 62.7006 158.156C69.2478 154.684 73.2158 148.831 73.2158 143.772C73.2158 142.383 72.9182 140.995 72.2238 139.705Z" fill="black"/>
<path d="M113.2 139.705C111.414 136.431 107.645 134.646 103.082 134.646C99.7087 134.646 96.0383 135.638 92.4671 137.523C85.9199 140.995 81.9519 146.847 81.9519 151.907C81.9519 153.295 82.2495 154.684 82.9439 155.974C84.7295 159.247 88.4991 160.934 93.0623 160.934C96.4351 160.934 100.106 160.041 103.677 158.156C110.224 154.684 114.192 148.831 114.192 143.772C114.192 142.383 113.894 140.995 113.2 139.705Z" fill="black"/>
<path d="M154.176 139.705C152.39 136.431 148.621 134.646 144.057 134.646C140.685 134.646 137.014 135.638 133.443 137.523C126.896 140.995 122.928 146.847 122.928 151.907C122.928 153.295 123.225 154.684 123.92 155.974C125.705 159.247 129.475 160.934 134.038 160.934C137.411 160.934 141.081 160.041 144.653 158.156C151.2 154.684 155.168 148.831 155.168 143.772C155.168 142.383 154.87 140.995 154.176 139.705Z" fill="black"/>
<path d="M195.152 139.705C193.366 136.431 189.597 134.646 185.033 134.646C181.661 134.646 177.99 135.638 174.419 137.523C167.872 140.995 163.904 146.847 163.904 151.907C163.904 153.295 164.201 154.684 164.896 155.974C166.681 159.247 170.451 160.934 175.014 160.934C178.387 160.934 182.057 160.041 185.629 158.156C192.176 154.684 196.144 148.831 196.144 143.772C196.144 142.383 195.846 140.995 195.152 139.705Z" fill="black"/>
<path fill-rule="evenodd" clip-rule="evenodd" d="M29.5039 48.54H196.136V60.9399H29.5039V48.54Z" fill="black"/>
<path fill-rule="evenodd" clip-rule="evenodd" d="M29.5039 67.1401H196.136V79.54H29.5039V67.1401Z" fill="black"/>
<path fill-rule="evenodd" clip-rule="evenodd" d="M29.5039 85.74H196.136V98.1401H29.5039V85.74Z" fill="black"/>
<path d="M104.277 14.4399C102.882 15.2999 102.477 15.84 102.477 16.74C102.477 17.59 103.197 18.22 104.097 18.22C105.267 18.22 105.942 17.37 106.077 15.7C107.472 14.58 108.957 14.0801 110.757 14.0801C114.087 14.0801 115.932 16.1501 115.932 19.8901C115.932 25.7401 112.152 30.51 107.517 30.51C104.862 30.51 102.702 29.25 102.702 27.76C102.702 27.49 102.747 27.4 102.972 27.27C104.142 26.73 104.142 26.73 104.457 26.5C105.177 25.96 105.582 25.15 105.582 24.21C105.582 22.77 104.457 21.6899 102.882 21.6899C100.902 21.6899 99.417 23.35 99.417 25.51C99.417 29.47 102.837 32.3501 107.652 32.3501C114.942 32.3501 120.837 26.5501 120.837 19.3501C120.837 14.8001 117.372 11.6101 112.467 11.6101C110.532 11.6101 108.957 12.0101 106.797 13.0901L109.317 4.59009C111.702 5.08009 113.592 5.31006 115.212 5.31006C118.182 5.31006 120.837 4.36004 122.322 2.79004C123.087 1.89004 123.537 1.12004 123.537 0.540039C123.537 0.270039 123.402 0 123.222 0C123.087 0 122.997 0.0399316 122.727 0.179932C121.242 0.899932 119.352 1.30005 117.597 1.30005C114.897 1.30005 111.702 0.85 108.372 0L104.277 14.4399Z" fill="black"/>
</svg>
