<svg width="24" height="24" viewBox="0 0 24 24" fill="none" xmlns="http://www.w3.org/2000/svg">
<path d="M12.9293 1L12.9319 0H12.9293V1ZM14.7882 2.40427L15.7623 2.17824C15.7555 2.1489 15.7473 2.11989 15.7379 2.09129L14.7882 2.40427ZM19 20.5556H20C20 20.4795 19.9913 20.4036 19.9741 20.3295L19 20.5556ZM11.0704 1L11.0704 -6.24892e-06L11.0669 6.24889e-06L11.0704 1ZM9.2116 2.40427L8.24081 2.16434C8.23966 2.16897 8.23855 2.17361 8.23747 2.17825L9.2116 2.40427ZM5 20.5556L4.02588 20.3295C4.00868 20.4036 4 20.4795 4 20.5556H5ZM15.7379 2.09129C15.5698 1.58112 15.3249 1.0043 14.8208 0.584101C14.2928 0.143972 13.6398 0.00188032 12.9319 3.51501e-06L12.9266 2C13.3855 2.00121 13.5076 2.09317 13.5403 2.12036C13.5968 2.16748 13.698 2.29125 13.8384 2.71725L15.7379 2.09129ZM13.814 2.63031L18.0259 20.7816L19.9741 20.3295L15.7623 2.17824L13.814 2.63031ZM17 24C17.9027 24 18.6605 23.4664 19.149 22.8693C19.6499 22.257 20 21.4275 20 20.5556H18C18 20.9058 17.8501 21.2985 17.601 21.6029C17.3395 21.9225 17.0973 22 17 22V24ZM10.1824 2.6442C10.2861 2.2245 10.5797 2.00174 11.074 1.99999L11.0669 6.24889e-06C9.81113 0.00444574 8.59983 0.711703 8.24081 2.16434L10.1824 2.6442ZM8.23747 2.17825L4.02588 20.3295L5.97412 20.7816L10.1857 2.6303L8.23747 2.17825ZM7 22C6.90274 22 6.66046 21.9225 6.39896 21.6029C6.14993 21.2985 6 20.9058 6 20.5556H4C4 21.4275 4.35007 22.257 4.85104 22.8693C5.33954 23.4664 6.09725 24 7 24V22ZM11.0704 2H12.9293V0H11.0704V2ZM17 22H7V24H17V22ZM16 15.8889H8V17.8889H16V15.8889ZM13 20.5556V4.05556H11V20.5556H13Z" fill="black"/>
</svg>
