<svg width="34" height="51" viewBox="0 0 34 51" fill="none" xmlns="http://www.w3.org/2000/svg">
<path d="M16.9998 2H18.9915" stroke="#A53030" stroke-width="4" stroke-linecap="round" stroke-linejoin="round"/>
<path d="M22.9747 5C22.3136 3 21.4915 2.00661 18.9915 2" stroke="#A53030" stroke-width="4" stroke-linecap="round" stroke-linejoin="round"/>
<path d="M22.9747 5L31.937 44" stroke="#A53030" stroke-width="4" stroke-linejoin="round"/>
<path d="M26.9579 49C29.9327 49 32.4328 47 31.937 44" stroke="#A53030" stroke-width="4" stroke-linecap="round" stroke-linejoin="round"/>
<path d="M26.9579 49H16.9998" stroke="#A53030" stroke-width="4" stroke-linecap="round" stroke-linejoin="round"/>
<path d="M16.9998 2L15.0082 2" stroke="#A53030" stroke-width="4" stroke-linecap="round" stroke-linejoin="round"/>
<path d="M11.025 5C11.5208 3 13.1332 2.00661 15.0082 2" stroke="#A53030" stroke-width="4" stroke-linecap="round" stroke-linejoin="round"/>
<path d="M11.0253 5L2.06301 44" stroke="#A53030" stroke-width="4" stroke-linejoin="round"/>
<path d="M7.04178 49C4.10459 49 1.56484 47.5 2.06275 44" stroke="#A53030" stroke-width="4" stroke-linecap="round" stroke-linejoin="round"/>
<path d="M7.04178 49H16.9999" stroke="#A53030" stroke-width="4" stroke-linecap="round" stroke-linejoin="round"/>
<path d="M23.9705 35H10.0292" stroke="#A53030" stroke-width="4"/>
<path d="M16.9998 42L16.9998 11" stroke="#A53030" stroke-width="4"/>
</svg>
